<svg viewBox="0 0 24 24" xmlns="http://www.w3.org/2000/svg" fill="#000000"><g id="SVGRepo_bgCarrier" stroke-width="0"></g><g id="SVGRepo_tracerCarrier" stroke-linecap="round" stroke-linejoin="round"></g><g id="SVGRepo_iconCarrier"> <rect x="0" fill="none" width="24" height="24"></rect> <g> <path d="M4 6c-1.105 0-2 .895-2 2v12c0 1.1.9 2 2 2h12c1.105 0 2-.895 2-2H4V6zm16-4H8c-1.105 0-2 .895-2 2v12c0 1.105.895 2 2 2h12c1.105 0 2-.895 2-2V4c0-1.105-.895-2-2-2zm-5 14H8V9h7v7zm5 0h-3V9h3v7zm0-9H8V4h12v3z"></path> </g> </g></svg>